<svg version="1.2" xmlns="http://www.w3.org/2000/svg" viewBox="0 0 1000 1000" width="1000" height="1000">
	<title>9898669-ai</title>
	<style>
		.s0 { fill: #fff0d2 } 
		.s1 { fill: none;stroke: #fdf8ff;stroke-miterlimit:10;strokeWidth: 6 } 
		.s2 { fill: #cac2f5 } 
		.s3 { fill: none;stroke: #463789;stroke-linecap: round;strokeLinejoin: round;strokeWidth: 20 } 
		.s4 { fill: #fdf8ff } 
		.s5 { fill: none;stroke: #786fc9;stroke-miterlimit:10;strokeWidth: 8 } 
		.s6 { fill: #463789 } 
		.s7 { fill: #fce6f3 } 
		.s8 { fill: #a89cf0 } 
		.s9 { fill: #5757ad } 
		.s10 { fill: #ffffff } 
		.s11 { fill: #8f87dd } 
		.s12 { fill: none;stroke: #5757ad;stroke-linecap: round;stroke-miterlimit:10;strokeWidth: 8 } 
		.s13 { fill: #fd8392 } 
		.s14 { fill: #febac9 } 
		.s15 { fill: none;stroke: #463789;stroke-linecap: round;strokeLinejoin: round;strokeWidth: 6 } 
		.s16 { fill: none;stroke: #463789;stroke-linecap: round;strokeLinejoin: round;strokeWidth: 8 } 
		.s17 { fill: none;stroke: #fdf8ff;stroke-miterlimit:10;strokeWidth: 4 } 
		.s18 { fill: none;stroke: #786fc9;stroke-linecap: round;stroke-miterlimit:10;strokeWidth: 8 } 
		.s19 { fill: #786fc9 } 
	</style>
	<g id="BACKGROUND">
		<g id="&lt;Group&gt;">
		</g>
	</g>
	<g id="OBJECTS">
		<path id="&lt;Path&gt;" class="s0" d="m677.5 477.1l96.8-141.3-4.7 171.3 161.4-57.5-104.5 135.8 164.4 48.4-164.4 48.5 104.5 135.8-161.4-57.5 4.7 171.3-96.8-141.4-96.9 141.4 4.8-171.3-161.5 57.5 104.5-135.8-164.3-48.5 164.3-48.4-104.5-135.8 161.5 57.5-4.8-171.3z"/>
		<path id="&lt;Path&gt;" class="s0" d="m275.9 183.8l85.4-79.3-28.8 112.9 115.6-14-89.6 74.4 101.8 56.7-116.3 7.6 49 105.6-98.4-62.2-22.5 114.3-43.1-108.2-85.3 79.2 28.7-112.9-115.6 14 89.6-74.4-101.7-56.7 116.2-7.5-49-105.7 98.5 62.2 22.4-114.3z"/>
		<g id="&lt;Group&gt;">
			<path id="&lt;Path&gt;" class="s1" d="m880.8 319l-30 30"/>
			<path id="&lt;Path&gt;" class="s1" d="m880.8 349l-30-30"/>
		</g>
		<path id="&lt;Path&gt;" class="s0" d="m131.2 625.7l15.7-22.8-0.8 27.6 26.1-9.3-16.9 21.9 26.5 7.9-26.5 7.8 16.9 21.9-26.1-9.3 0.8 27.7-15.7-22.9-15.6 22.9 0.8-27.7-26.1 9.3 16.9-21.9-26.5-7.8 26.5-7.9-16.9-21.9 26.1 9.3-0.8-27.6z"/>
		<path id="&lt;Path&gt;" class="s0" d="m892.5 111.9l21.1-30.8-1 37.3 35.2-12.5-22.8 29.6 35.8 10.6-35.8 10.6 22.8 29.6-35.2-12.6 1 37.4-21.1-30.8-21.1 30.8 1-37.4-35.2 12.6 22.8-29.6-35.9-10.6 35.9-10.6-22.8-29.6 35.2 12.5-1-37.3z"/>
		<path id="&lt;Path&gt;" class="s0" d="m181.8 816.5l21.8-31.8-1 38.6 36.4-13-23.6 30.6 37.1 11-37.1 10.9 23.6 30.6-36.4-13 1 38.7-21.8-31.9-21.8 31.9 1.1-38.7-36.4 13 23.5-30.6-37-10.9 37-11-23.5-30.6 36.4 13-1.1-38.6z"/>
		<g id="&lt;Group&gt;" style="mix-blend-mode: multiply">
			<path id="&lt;Path&gt;" class="s2" d="m743.8 832.5c0 26.3-109.1 47.6-243.8 47.6-134.7 0-243.8-21.3-243.8-47.6 0-26.2 109.1-47.5 243.8-47.5 134.7 0 243.8 21.3 243.8 47.5z"/>
		</g>
		<g id="&lt;Group&gt;">
			<path id="&lt;Path&gt;" class="s1" d="m324.8 51.1l-30 30"/>
			<path id="&lt;Path&gt;" class="s1" d="m324.8 81.1l-30-30"/>
		</g>
		<g id="&lt;Group&gt;">
			<path id="&lt;Path&gt;" class="s1" d="m108.4 479.2l-30 30"/>
			<path id="&lt;Path&gt;" class="s1" d="m108.4 509.2l-30-30"/>
		</g>
		<g id="&lt;Group&gt;">
			<path id="&lt;Path&gt;" class="s1" d="m379.1 916.9l-30 30"/>
			<path id="&lt;Path&gt;" class="s1" d="m379.1 946.9l-30-30"/>
		</g>
		<g id="&lt;Group&gt;">
			<path id="&lt;Path&gt;" class="s1" d="m895.8 901.9l-30 30"/>
			<path id="&lt;Path&gt;" class="s1" d="m895.8 931.9l-30-30"/>
		</g>
		<g id="&lt;Group&gt;">
			<path id="&lt;Path&gt;" class="s1" d="m683.9 57.3l-30 30"/>
			<path id="&lt;Path&gt;" class="s1" d="m683.9 87.3l-30-30"/>
		</g>
		<g id="&lt;Group&gt;">
			<g id="&lt;Group&gt;">
				<path id="&lt;Path&gt;" class="s3" d="m300.8 449.9c0 0-53.4 52.4-84.9 27.7-31.5-24.8 20.9-127.3 56.6-173.8"/>
			</g>
			<g id="&lt;Group&gt;">
				<g id="&lt;Group&gt;">
					<path id="&lt;Path&gt;" class="s4" d="m802.8 777.2c6.6 14 4 38.8-11.6 30.6-15.6-8.2-33-49-36.1-66.9-3.2-18 4.9-36 14.8-44.6 9.9-8.6 22.4-14.9 39.6-11.8 17.3 3.2 23.6 9.4 47.2 18.3 24.9 9.3 38.1 12 47.3 18.3 9.3 6.2 6.1 19.5-3.2 20.4-11.7 1.2-33.4-2.8-33.4-2.8 0 0 15.3 5.7 27.9 9.6 16.1 4.9 27 8.4 27.1 17.9 0.1 9.9-9.6 13.1-32.3 12.8-22.7-0.4-40.3-9.1-40.3-9.1 0 0 22 10.2 34.5 17.5 13.9 8.1 21.3 24.5-2.4 28.5-12.5 2.1-35.6-6.6-49.1-15.8-18-12.5-30-22.9-30-22.9z"/>
					<path id="&lt;Path&gt;" class="s5" d="m802.8 777.2c6.6 14 4 38.8-11.6 30.6-15.6-8.2-33-49-36.1-66.9-3.2-18 4.9-36 14.8-44.6 9.9-8.6 22.4-14.9 39.6-11.8 17.3 3.2 23.6 9.4 47.2 18.3 24.9 9.3 38.1 12 47.3 18.3 9.3 6.2 6.1 19.5-3.2 20.4-11.7 1.2-33.4-2.8-33.4-2.8 0 0 15.3 5.7 27.9 9.6 16.1 4.9 27 8.4 27.1 17.9 0.1 9.9-9.6 13.1-32.3 12.8-22.7-0.4-40.3-9.1-40.3-9.1 0 0 22 10.2 34.5 17.5 13.9 8.1 21.3 24.5-2.4 28.5-12.5 2.1-35.6-6.6-49.1-15.8-18-12.5-30-22.9-30-22.9z"/>
				</g>
				<g id="&lt;Group&gt;">
					<g id="&lt;Group&gt;">
						<path id="&lt;Path&gt;" class="s2" d="m824.1 757.9c-8.6-4.1-17.2-8.6-25.6-13.3-8.4-4.7-16.7-9.6-24.8-15l3.6-4.8c7.3 6.1 15 11.8 22.8 17.3 7.8 5.5 15.9 10.8 24 15.8z"/>
					</g>
					<g id="&lt;Group&gt;">
						<path id="&lt;Path&gt;" class="s2" d="m842.6 738q-15.3-4.5-30.6-9.6-7.6-2.5-15.2-5.3c-5-1.9-10-3.8-15.1-6.5l3.2-5.1c4.1 2.7 8.9 5.1 13.7 7.4q7.2 3.5 14.5 6.7 14.7 6.5 29.5 12.4z"/>
					</g>
					<g id="&lt;Group&gt;">
						<path id="&lt;Path&gt;" class="s2" d="m834.3 712.3q-11.6-1.3-23.1-3.4c-7.6-1.5-15.3-3.2-22.9-5.9l2.4-5.5c6.7 3.4 14 6.1 21.3 8.4q11 3.6 22.3 6.4z"/>
					</g>
				</g>
				<g id="&lt;Group&gt;">
					<g id="&lt;Group&gt;">
						<path id="&lt;Path&gt;" class="s2" d="m746.7 696c-21.9 27-29.8 44.1-15 55.9 14.7 11.8 42.4-9 57.9-28.2 15.5-19.2 23.6-42.7 8.8-54.4-14.7-11.8-29.8-0.4-51.7 26.7z"/>
						<path id="&lt;Path&gt;" class="s5" d="m746.7 696c-21.9 27-29.8 44.1-15 55.9 14.7 11.8 42.4-9 57.9-28.2 15.5-19.2 23.6-42.7 8.8-54.4-14.7-11.8-29.8-0.4-51.7 26.7z"/>
					</g>
					<g id="&lt;Group&gt;">
						<path id="&lt;Path&gt;" class="s6" d="m780.7 676.8c0.3 3.2-0.4 6.4-1.2 9.5-0.8 3.1-2 6.1-3.4 8.9-2.7 5.8-6.3 11.1-10.3 16-3.9 4.9-8.4 9.5-13.5 13.4-2.4 2-5.1 3.7-8 5.2-2.8 1.5-5.8 2.8-9 3.1 2.7-1.6 5.1-3.5 7.4-5.5 2.3-2 4.4-4.1 6.5-6.3 4.2-4.4 8.1-8.9 12-13.7 3.8-4.7 7.4-9.5 10.8-14.5 1.7-2.5 3.4-5 4.8-7.7 1.5-2.6 2.9-5.4 3.9-8.4z"/>
					</g>
					<g id="&lt;Group&gt;">
						<path id="&lt;Path&gt;" class="s6" d="m776.3 689.8c2.4-5.3-0.4-7.9-11.6 3.1-11.2 11-30 38.1-17.7 33.2 12.2-5 29.3-36.3 29.3-36.3z"/>
					</g>
				</g>
				<g id="&lt;Group&gt;">
					<path id="&lt;Path&gt;" class="s3" d="m755.5 703.4c0 0-51.1-34-31.4-201.9"/>
				</g>
			</g>
			<g id="&lt;Group&gt;">
				<g id="&lt;Group&gt;">
					<path id="&lt;Path&gt;" class="s7" d="m802.9 463.8c25.8-70.2-13.9-118.1-41.2-132.8-27.2-14.6-41.5-0.3-71.1-14.1-20.3-9.4-35.9-49.6-93.5-70-46.3-16.5-77.8 2.6-108.8-3.6-31-6.1-50.5-24.3-74.6-28-24.1-3.6-75 1.3-102.2 51-38.1 70-69.6 188.6-72.2 284.2-2.5 95.6 0.6 185.9 32.7 206.5 24.3 15.5 58.6 12 85.6-31.4 12.7-20.4 49.6-69.6 72.3-64.7 9.3 2.1 18.9 22.2 12.4 63.6-6.7 42.1-17.9 58.5-9.9 80.2 12.2 33.3 69.8 36 151.6-21 84.8-59.1 143.3-114 218.9-319.9z"/>
				</g>
				<g id="&lt;Group&gt;">
					<path id="&lt;Path&gt;" class="s8" d="m583.5 306.6c27.3 7.5 47 21.8 63.7 35.8 19.8-6.5 62-19.1 91.4-18.4-14.8-1.3-27.9 2.3-48-7.1-20.3-9.4-35.9-49.6-93.5-70-46.3-16.5-77.8 2.6-108.8-3.6-17.6-3.4-31.6-10.8-44.7-17.3 31.8 17.3 61.5 58.8 73.8 77.5 23.7 0 49.1-1.6 66.1 3.1z"/>
				</g>
				<g id="&lt;Group&gt;">
					<path id="&lt;Path&gt;" class="s9" d="m462.9 292.8c4.4 3.1 9.5 4.9 14.6 6 5.2 1.1 10.5 1.7 15.8 1.9 10.6 0.5 21.2 0 31.9-0.3 10.7-0.5 21.5-0.9 32.4-0.8 5.4 0.1 10.9 0.4 16.4 1.1 2.8 0.4 5.6 0.9 8.3 1.5 2.9 0.6 5.4 1.6 8 2.4 10.5 3.4 20.7 7.9 30 13.7 9.4 5.8 18.1 12.3 26.3 19.5 8.2 7.1 15.8 14.6 23.8 21.8 7.8 7.1 16.1 13.9 25.9 18.4-10.5-2.8-19.8-9-28.4-15.4-8.7-6.5-16.9-13.4-25.3-20-8.4-6.4-17-12.6-26.1-17.8-2.3-1.2-4.6-2.6-6.9-3.8l-7.1-3.4c-2.3-1-4.8-1.9-7.2-2.9-2.4-1-4.9-1.8-7.4-2.5-2.5-0.8-5-1.8-7.4-2.3-2.5-0.6-5-1-7.5-1.4-5.1-0.8-10.4-1.1-15.7-1.3-10.5-0.6-21.2-0.4-32-0.6-10.8-0.2-21.6-0.5-32.4-2-5.4-0.8-10.8-1.9-16-3.7-5.1-1.7-10.1-4.3-14-8.1z"/>
				</g>
				<g id="&lt;Group&gt;">
					<path id="&lt;Path&gt;" class="s2" d="m544.6 249.5c-29.2 1.8-32.6 42.9-3.9 42.6 53.5-1.8 54.1 0.6 99.2 22.6 17.5 0.6 8.7-22.2 0.4-29.2-24.4-26.2-58.4-38.3-95.7-36z"/>
				</g>
				<g id="&lt;Group&gt;">
					<path id="&lt;Path&gt;" class="s4" d="m405.9 249.5c-33.2-15.2-63.9 7.2-79.1 37.6-31.1 62-103.2 289.8-32 332.5 27.2 12.3 57.9-10.9 87.5-7.7 30.3 5.6 56.1 27.5 89.6 20.5 103.6-21.5 228.8-217.6 147.6-290.7-39.1-35.2-115.9-13.4-152.1-26.9-29-10.9-26.6-52.3-61.5-65.3z"/>
				</g>
				<g id="&lt;Group&gt;">
					<path id="&lt;Path&gt;" class="s2" d="m396.1 655.9c1-9.6-48.3-23.3-59.1-2.6-25.2 47.7-55.1 83.2-52.3 92 6.5 20.6 33.7 9.1 60.6-22.4 17.1-20.1 49.6-56.3 50.8-67z"/>
				</g>
				<g id="&lt;Group&gt;">
					<path id="&lt;Path&gt;" class="s2" d="m716 356.3c-2.3-24 50.4-12.1 71.1 22.5 24.2 40.4-0.9 113.8-43.3 194.7-42.4 80.9-123.2 166.6-175.6 203.7-43.9 31.1-85.4 50.4-102.8 36-9.3-7.6 17.9-34.4 45.9-118.4 4.7-14 43.3-45 73.3-82.8 36.5-46.2 49.3-82.2 79.9-158.5 30.6-76.3 58.6-21.8 51.5-97.2z"/>
				</g>
				<g id="&lt;Group&gt;">
					<g id="&lt;Group&gt;">
						<path id="&lt;Path&gt;" class="s9" d="m440.4 220.2c7 4.2 13.4 9.2 19.3 14.4 6 5.2 11.7 10.7 17.1 16.5 10.8 11.5 20.8 23.6 29.6 36.6-9.9-12.2-20.8-23.4-32.4-33.8-5.8-5.1-11.8-10.1-18-14.6-6.2-4.6-12.7-8.8-19.4-12.1-2-1-2.8-3.4-1.8-5.4 0.9-2 3.3-2.8 5.3-1.8q0.2 0.1 0.3 0.2z"/>
					</g>
					<g id="&lt;Group&gt;">
						<path id="&lt;Path&gt;" class="s9" d="m656.3 339.6q20.3-7.2 41.4-12.4c7-1.7 14.1-3.2 21.3-4.4 7.2-1.2 14.4-2.1 21.9-2.3 2.2-0.1 4.1 1.7 4.1 3.9 0.1 2.2-1.7 4.1-3.9 4.1q-0.2 0-0.3 0h-0.1c-6.9-0.5-13.9-0.2-21 0.3-7.1 0.5-14.2 1.3-21.2 2.4-14.2 2.1-28.3 4.9-42.2 8.4z"/>
					</g>
				</g>
				<path id="&lt;Path&gt;" class="s10" d="m400 282.6c-5.8-4.9-12.1-9.9-19.6-11-7.8-1.1-15.6 2.3-21.6 7.4-5.9 5.2-10.1 11.9-14 18.7-8.8 15.2-16.5 31-22.9 47.3-5.5 13.7-10.2 27.9-11.8 42.6-1.1 9.9 0.8 22.4 10.1 25.8 4.3 1.5 9 0.7 13.5-0.2q20.1-4 40.3-8c21-4.1 42.7-8.5 60.2-20.9 14-10 32.9-35.7 22.9-54-4.2-7.8-16.1-14.1-22.8-19.5q-17.1-14.1-34.3-28.2z"/>
				<g id="&lt;Group&gt;">
					<path id="&lt;Path&gt;" class="s9" d="m395.1 641.8c6.3-1 12.8-0.9 19.2 0.2 6.4 1.1 12.7 3.4 18.1 7.5 5.4 4.1 9.6 10 11.8 16.4 2.4 6.5 3.3 13.3 3.3 20 0 2.2-1.7 4-4 4-2.2 0.1-4-1.7-4-3.9q0-0.3 0-0.5c0.6-6 0.4-12-1-17.8-1.4-5.7-4.3-11-8.6-15.1-4.4-4.2-10-7-16-8.7-6.1-1.7-12.4-2.4-18.8-2.1z"/>
				</g>
				<g id="&lt;Group&gt;">
					<g id="&lt;Group&gt;">
						<path id="&lt;Path&gt;" class="s2" d="m277.4 486c-0.7 5.5-1.3 10.9-1.7 16.4q-0.6 8.2-0.8 16.4c-0.3 10.9-0.1 21.8 1.1 32.6q0.9 8.1 2.6 16.1 1.7 8 4.5 15.6c3.6 10.1 9.1 19.7 16.7 27.7-4.3-3.4-8.1-7.5-11.5-12-3.3-4.5-5.9-9.4-8.1-14.6-4.5-10.2-6.9-21.3-8.1-32.3-1.2-11.1-1.2-22.2-0.3-33.3 0.9-11 2.6-22 5.6-32.6z"/>
					</g>
					<g id="&lt;Group&gt;">
						<path id="&lt;Path&gt;" class="s2" d="m284 503.5q-0.5 11.7-0.2 23.4c0.3 7.8 0.8 15.6 1.7 23.3 0.7 7.7 2.2 15.3 3.9 22.9 1.6 7.6 4.1 14.9 6.6 22.4q-1.4-2.5-2.9-5.1-0.7-1.3-1.4-2.7l-1.2-2.7c-0.7-1.8-1.5-3.6-2.3-5.5l-1.8-5.6c-2.4-7.6-4-15.4-4.9-23.3-0.9-7.9-1.2-15.8-0.8-23.7 0.4-7.9 1.3-15.8 3.3-23.4z"/>
					</g>
					<g id="&lt;Group&gt;">
						<path id="&lt;Path&gt;" class="s2" d="m582.1 335.4c8.5 3.8 16.6 8.5 24 14.4 7.3 5.9 13.8 13.1 18.5 21.4 1.2 2.1 2.1 4.3 3.2 6.4 0.9 2.2 1.6 4.5 2.4 6.7 0.7 2.3 1.1 4.7 1.7 7 0.5 2.3 0.7 4.7 1 7 0.9 9.4-0.1 18.9-2.2 27.9 0.5-9.3 0.5-18.5-0.9-27.5-1.4-9-4.2-17.7-8.7-25.5-4.4-7.9-10.3-14.8-17.1-21-6.7-6.2-14.2-11.6-21.9-16.8z"/>
					</g>
				</g>
				<g id="&lt;Group&gt;">
					<g id="&lt;Group&gt;">
						<path id="&lt;Path&gt;" class="s11" d="m690.2 643.3c-8.6 13.3-18.1 25.8-28.1 38.1-9.9 12.2-20.3 24.1-31.3 35.4-11.1 11.2-22.4 22.3-34.7 32.2-12.3 10-25.2 19.3-39.3 26.5 12.8-9.3 24.6-19.5 36.2-30q4.3-4 8.6-8l8.4-8.2c2.8-2.7 5.5-5.5 8.3-8.3 2.7-2.8 5.5-5.5 8.2-8.4l8.1-8.4 8.1-8.6c5.3-5.7 10.6-11.5 15.9-17.3z"/>
					</g>
					<g id="&lt;Group&gt;">
						<path id="&lt;Path&gt;" class="s11" d="m668.9 657.3c-5.9 9.8-12.7 18.9-19.9 27.8-3.6 4.5-7.4 8.7-11.1 13-1.9 2.2-3.9 4.2-5.9 6.3-1.9 2.1-3.9 4.2-5.9 6.2-8 8.1-16.5 15.8-25.4 22.9-8.9 7.2-18.4 13.7-28.4 19.3 8.6-7.6 17.1-15 25.3-22.8 4.1-3.9 8.2-7.7 12.2-11.7l6.1-5.9 6-6q6-6 11.8-12.1c4-4.1 7.8-8.2 11.8-12.3z"/>
					</g>
					<g id="&lt;Group&gt;">
						<path id="&lt;Path&gt;" class="s11" d="m379.5 665.7c-3.8 8.3-8.6 16.1-13.8 23.6-2.6 3.8-5.4 7.4-8.2 11.1q-4.3 5.3-8.9 10.4c-6.1 6.8-12.6 13.3-19.6 19.2-6.9 6-14.3 11.4-22.1 16.2 6.2-6.7 12.7-13 18.9-19.6 6.3-6.5 12.3-13.1 18.4-19.8 6.1-6.6 11.9-13.5 17.8-20.3z"/>
					</g>
					<g id="&lt;Group&gt;">
						<path id="&lt;Path&gt;" class="s11" d="m765.4 365.2c4.9 3.7 8.7 8.8 11.7 14.2 0.8 1.3 1.4 2.8 2.1 4.2 0.6 1.4 1.4 2.8 1.9 4.3l1.5 4.4 0.7 2.2c0.2 0.8 0.4 1.5 0.6 2.3 3 12.1 3.7 24.7 2.6 37l-0.4 4.6-0.7 4.6-1.5 9.1c-0.6 3.1-1.4 6-2.2 9-0.7 3-1.4 6-2.4 8.9-2 5.8-3.9 11.6-6.2 17.3-2.5 5.6-5 11.2-7.7 16.6 1.5-5.9 3.2-11.7 4.9-17.5 0.9-2.9 1.5-5.9 2.2-8.8l2.3-8.8q1.9-8.9 3.5-17.7l1.3-8.9 0.6-4.4 0.3-4.5c0.2-3 0.6-5.9 0.6-8.9 0-3 0-5.9 0-8.9 0-3-0.4-5.9-0.6-8.9l-0.1-2.2-0.4-2.2-0.7-4.4c-0.1-0.7-0.2-1.5-0.3-2.2l-0.6-2.2-1-4.3c-0.4-1.4-0.9-2.8-1.4-4.2-0.5-1.4-0.9-2.9-1.5-4.2-2.2-5.6-5.1-10.9-9.1-15.5z"/>
					</g>
				</g>
				<g id="&lt;Group&gt;">
					<path id="&lt;Path&gt;" class="s12" d="m802.9 463.8c25.8-70.2-13.9-118.1-41.2-132.8-27.2-14.6-41.5-0.3-71.1-14.1-20.3-9.4-35.9-49.6-93.5-70-46.3-16.5-77.8 2.6-108.8-3.6-31-6.1-50.5-24.3-74.6-28-24.1-3.6-75 1.3-102.2 51-38.1 70-69.6 188.6-72.2 284.2-2.5 95.6 0.6 185.9 32.7 206.5 24.3 15.5 58.6 12 85.6-31.4 12.7-20.4 49.6-69.6 72.3-64.7 9.3 2.1 18.9 22.2 12.4 63.6-6.7 42.1-17.9 58.5-9.9 80.2 12.2 33.3 69.8 36 151.6-21 84.8-59.1 143.3-114 218.9-319.9z"/>
				</g>
				<g id="&lt;Group&gt;">
					<g id="&lt;Group&gt;">
						<path id="&lt;Path&gt;" class="s13" d="m514.8 511.6c-2.8 7.7-14.7 10.6-26.6 6.4-12-4.3-19.5-14-16.7-21.7 2.7-7.8 14.6-10.6 26.6-6.4 11.9 4.2 19.4 13.9 16.7 21.7z"/>
					</g>
					<g id="&lt;Group&gt;">
						<path id="&lt;Path&gt;" class="s14" d="m417.3 499.2c-4.5 12.8-25.3 17.1-46.5 9.7-21.2-7.5-34.6-24-30.1-36.8 4.5-12.9 25.4-17.2 46.5-9.7 21.2 7.5 34.7 23.9 30.1 36.8z"/>
					</g>
					<g id="&lt;Group&gt;">
						<path id="&lt;Path&gt;" class="s14" d="m632.5 575.2c-4.6 12.9-25.4 17.2-46.6 9.7-21.1-7.5-34.6-23.9-30.1-36.8 4.6-12.8 25.4-17.1 46.6-9.7 21.1 7.5 34.6 24 30.1 36.8z"/>
					</g>
					<g id="&lt;Group&gt;">
						<g id="&lt;Group&gt;">
							<path id="&lt;Path&gt;" class="s6" d="m470.2 531.8c0 0 45.2 18.3 29.1 49-13.5 25.7-49.3-5.6-29.1-49z"/>
						</g>
						<g id="&lt;Group&gt;">
							<path id="&lt;Path&gt;" class="s14" d="m499.3 580.8c2.8-5.3 3.7-10.3 3.3-14.8-12.2-3.4-24.9 2.6-34.6 9.6 7.3 15.6 23.2 20.5 31.3 5.2z"/>
						</g>
						<g id="&lt;Group&gt;">
							<path id="&lt;Path&gt;" class="s15" d="m460 526.4c0 0 55.6 21.4 39.3 54.4-12.9 26-49.3-5.6-29.1-49"/>
						</g>
					</g>
					<path id="&lt;Path&gt;" class="s16" d="m447.7 388.6c-33-6.7-63.3 27.7-57.7 59.6 6.9 39.6 59.6 62.4 86.7 24.5 28.5-40.8-29-99.7-62.5-55.1-27 35.9 23.1 74.3 45.7 42.2 12.3-17.4-5.9-42.6-25.9-34.9-14.9 5.7-13.7 30.6-0.2 30.9 10.7 0.2 10.6-8.9 9.4-13"/>
					<path id="&lt;Path&gt;" class="s16" d="m528.1 512.8c18.4 37.8 61.9 30.6 82.7 5.8 25.8-30.8 9.4-85.8-37-82.1-54.9 3.9-49 85.3-2 83.2 40.1-1.7 44.7-68.5 3-62.1-21.1 3.2-26.8 30.5-10.2 42.3 13.1 9.2 32.3-9.2 23.9-19.7-6.8-8.4-13.7-2.4-16 1.2"/>
					<g id="&lt;Group&gt;">
						<path id="&lt;Path&gt;" class="s8" d="m636.3 449.1c0 0-1.2-31.6-12.5-48.8-13.1-20-31.5-16.4-28.4-4.1 3.8 15.5 29.5 19.7 40.9 52.9z"/>
					</g>
					<g id="&lt;Group&gt;">
						<path id="&lt;Path&gt;" class="s8" d="m426.4 365c0 0 21.3-23.4 41-29.2 22.9-6.8 34.6 7.9 24.3 15.2-12.9 9.4-35.3-4-65.3 14z"/>
					</g>
				</g>
			</g>
			<g id="&lt;Group&gt;">
				<g id="&lt;Group&gt;">
					<g id="&lt;Group&gt;">
						<path id="&lt;Path&gt;" class="s17" d="m785.2 213.9c1.6 32.6-79 63.2-180.2 68.4-101.2 5.3-184.5-16.9-186.2-49.5-1.7-32.6 79-63.2 180.1-68.4 101.2-5.2 184.6 17 186.3 49.5z"/>
						<path id="&lt;Path&gt;" class="s17" d="m747.9 334.5c-19.8 26-101.1-2.8-181.7-64.2-80.6-61.4-129.9-132.2-110.1-158.1 19.7-25.9 101.1 2.8 181.7 64.2 80.5 61.4 129.8 132.2 110.1 158.1z"/>
					</g>
				</g>
				<path id="&lt;Path&gt;" class="s0" d="m563.1 140.3l-20.3-10.3-16 16.1 3.5-22.5-20.3-10.3 22.5-3.6 3.5-22.4 10.3 20.2 22.5-3.6-16.1 16.1z"/>
				<path id="&lt;Path&gt;" class="s0" d="m769.1 211.4l-5.9-15.5-16.6 0.8 12.9-10.4-5.9-15.6 13.9 9.1 13-10.4-4.4 16.1 14 9.1-16.6 0.8z"/>
				<path id="&lt;Path&gt;" class="s0" d="m535 279.6l-7.2-27.1-28-1.5 23.5-15.2-7.1-27.1 21.7 17.7 23.5-15.2-10.1 26.1 21.8 17.7-28-1.5z"/>
				<path id="&lt;Path&gt;" class="s0" d="m701.1 268.5l-13.8 8.2 3.5 15.7-12.1-10.6-13.8 8.1 6.4-14.7-12.1-10.6 16 1.5 6.4-14.7 3.5 15.6z"/>
			</g>
			<g id="&lt;Group&gt;">
				<g id="&lt;Group&gt;">
					<path id="&lt;Path&gt;" class="s2" d="m303.1 352.5c-12.2 18.3-38.9 17.1-61-4.9-25.3-25.2-14-49.8-4.7-59.1 14.9-15.1 34.6 0.5 49.4 16.6 9.5 10.3 27.4 30.7 16.3 47.4z"/>
					<path id="&lt;Path&gt;" class="s5" d="m303.1 352.5c-12.2 18.3-38.9 17.1-61-4.9-25.3-25.2-14-49.8-4.7-59.1 14.9-15.1 34.6 0.5 49.4 16.6 9.5 10.3 27.4 30.7 16.3 47.4z"/>
				</g>
				<g id="&lt;Group&gt;">
					<g id="&lt;Group&gt;">
						<path id="&lt;Path&gt;" class="s4" d="m281 334.4c20.2 7.2 37 1.5 48.4-13.8 11.5-15.2 8.5-22.8 29.3-40.2 20.8-17.5 25.7-15.3 31.8-21.8 7.8-8.2 5-21.5-10.3-20.7 0 0 18.3-6.2 16.5-19.3-2.2-15.2-19.8-13.7-33.5-10.4 0 0 11.1-12.4-4.2-15.7-15.2-3.3-52.3 0.1-82.7 43.8-30.3 43.7-32.3 57.5-23.3 75 7.2 13.8 20.7 20.4 28 23.1z"/>
					</g>
					<g id="&lt;Group&gt;">
						<g id="&lt;Group&gt;">
							<path id="&lt;Path&gt;" class="s2" d="m363.8 211.1c-5.3 1-10.9 2.7-16.1 4.7-5.4 2-10.5 4.5-15.5 7.3-2.6 1.3-4.9 3-7.3 4.5-2.3 1.7-4.8 3.3-6.9 5.2-4.6 3.6-8.5 7.8-12.3 12.2 3.4-4.7 7-9.3 11.3-13.3 2-2.1 4.3-3.9 6.5-5.9 2.3-1.8 4.6-3.6 7.1-5.3 4.8-3.3 9.9-6.3 15.3-8.8 5.4-2.6 10.8-4.8 16.7-6.4z"/>
						</g>
						<g id="&lt;Group&gt;">
							<path id="&lt;Path&gt;" class="s2" d="m380.2 240.9c-2-0.1-4.4 0.1-6.7 0.5-2.3 0.3-4.6 0.8-6.8 1.4-4.6 1.2-9.1 2.8-13.4 4.9-1 0.5-2.1 1.1-3.1 1.6q-1.7 0.8-3.2 1.8l-3 1.9-3 2c-2 1.4-3.8 3-5.7 4.5-1.9 1.6-3.6 3.3-5.4 4.9 1.6-1.8 3.2-3.7 4.9-5.5 1.7-1.6 3.4-3.5 5.3-5l2.8-2.4 2.9-2.3q1.4-1.1 3-2.1c1-0.7 2-1.4 3.1-2.1 4.2-2.5 8.7-4.7 13.4-6.5 2.3-0.9 4.7-1.6 7.2-2.3 2.5-0.6 4.9-1.1 7.7-1.3z"/>
						</g>
					</g>
					<g id="&lt;Group&gt;">
						<g id="&lt;Group&gt;">
							<path id="&lt;Path&gt;" class="s2" d="m294.2 265.6c-3.3 4.2-6.4 8.6-9.2 13.1q-4.3 6.8-8 13.9-3.6 7.1-6.5 14.5c-2 4.9-3.5 10-5 15l-5.7-1.8c2-5.1 4.1-10.2 6.6-15q3.7-7.3 8-14.2 4.4-6.8 9.3-13.2c3.3-4.3 6.8-8.4 10.5-12.3z"/>
						</g>
						<g id="&lt;Group&gt;">
							<path id="&lt;Path&gt;" class="s2" d="m270.9 262.5c-2.4 3.5-4.4 7.2-6.2 11.1-1.7 3.8-3.2 7.8-4.4 11.8-0.6 2-1.1 4-1.6 6-0.4 2.1-0.9 4.1-1.1 6.1-0.6 4.1-0.7 8.3-0.7 12.3l-6-0.1c0.5-4.4 1.1-8.8 2.3-13 0.5-2.2 1.3-4.2 1.9-6.3 0.8-2 1.5-4.1 2.4-6.1q2.6-5.9 5.9-11.4c2.3-3.7 4.7-7.2 7.5-10.4z"/>
						</g>
						<g id="&lt;Group&gt;">
							<path id="&lt;Path&gt;" class="s2" d="m307.3 292.9q-7.4 9.7-15 19.3c-5.2 6.4-10.3 12.7-15.9 18.8l-4.2-4.3c6.1-5.2 12-10.8 17.8-16.5q8.8-8.5 17.3-17.3z"/>
						</g>
					</g>
					<g id="&lt;Group&gt;">
						<path id="&lt;Path&gt;" class="s18" d="m281 334.4c20.2 7.2 37 1.5 48.4-13.8 11.5-15.2 8.5-22.8 29.3-40.2 20.8-17.5 25.7-15.3 31.8-21.8 7.8-8.2 5-21.5-10.3-20.7 0 0 18.3-6.2 16.5-19.3-2.2-15.2-19.8-13.7-33.5-10.4 0 0 11.1-12.4-4.2-15.7-15.2-3.3-48.8 1.8-82.7 43.8-33.3 41.4-32.3 57.5-23.3 75 7.2 13.8 20.7 20.4 28 23.1z"/>
					</g>
				</g>
			</g>
			<g id="&lt;Group&gt;">
				<g id="&lt;Group&gt;">
					<path id="&lt;Path&gt;" class="s4" d="m221.5 558.3c0.2 15.6 0.5 31 1.2 46.4q0.3 5.8 0.5 11.6l0.7 11.5c0.2 3.9 0.5 7.7 0.8 11.6l0.4 5.7 0.6 5.8c1.2 15.4 3 30.7 5.1 45.9l1.7 11.5 2 11.4 0.9 5.7 1.1 5.7q1.1 5.7 2.1 11.4-1.9-5.4-3.7-11l-1.8-5.5-1.5-5.7-3-11.3-2.4-11.4c-0.4-1.9-0.8-3.8-1.1-5.7l-1-5.8c-0.6-3.8-1.3-7.6-1.8-11.5-1-7.7-2-15.4-2.6-23.2l-0.5-5.8-0.3-5.8c-0.2-3.9-0.6-7.8-0.6-11.7l-0.3-11.7q-0.1-5.8 0-11.6c0.3-15.6 1.2-31.1 3.5-46.5z"/>
				</g>
				<g id="&lt;Group&gt;">
					<path id="&lt;Path&gt;" class="s4" d="m210.2 580.9c1.6 12.1 2.9 24.2 4.1 36.4l3.8 36.2 0.9 9.1 1 9c0.6 6.1 1.4 12.1 2 18.1l4.3 36.3c-3.8-11.6-6.7-23.5-8.9-35.6-2.3-12-4-24.1-5.3-36.3-0.5-6.1-1.1-12.1-1.5-18.2-0.4-6.1-0.8-12.2-0.9-18.3-0.4-12.2-0.4-24.5 0.5-36.7z"/>
				</g>
				<g id="&lt;Group&gt;">
					<path id="&lt;Path&gt;" class="s4" d="m431.4 689.1c2.6 9.2 2.2 19.1 0.7 28.5-1.4 9.5-4 18.6-6.6 27.6q-2 6.8-3.9 13.5c-1.2 4.5-2.3 8.9-3.2 13.4-1.6 9-2.2 18.3 0.9 27.3-2.7-3.9-4.3-8.6-5.1-13.4-0.8-4.8-0.9-9.7-0.4-14.5 0.9-9.6 3.4-18.9 6-27.9l4-13.5c1.4-4.5 2.6-8.9 3.8-13.4 2.2-9 3.9-18.1 3.8-27.6z"/>
				</g>
				<g id="&lt;Group&gt;">
					<path id="&lt;Path&gt;" class="s4" d="m813 365.4c5.6 6.9 10.1 14.8 13.2 23.3l1 3.2c0.4 1.1 0.8 2.1 1 3.3l1.4 6.6c0.5 2.2 0.6 4.5 0.9 6.7l0.4 3.4c0.1 1.2 0 2.3 0.1 3.4v6.8c0 2.3-0.3 4.5-0.4 6.8-0.3 2.2-0.3 4.5-0.7 6.7l-1 6.7c-0.6 4.5-1.8 8.8-2.8 13.2-0.9 4.4-2.3 8.7-3.6 13-5.4 17.1-11.9 33.7-19.8 49.7-3.7 8.1-8.1 15.9-12.2 23.8-4.3 7.7-8.8 15.4-13.4 23 3.4-8.2 7.2-16.2 10.8-24.3l5.3-12.2 2.7-6.1 2.5-6.1 5.1-12.3 4.7-12.3c1.7-4.1 3.1-8.3 4.5-12.4l2.2-6.3c0.7-2.1 1.3-4.2 1.9-6.3 1.3-4.2 2.7-8.4 3.6-12.6 1-4.3 2.2-8.5 2.9-12.8l1.2-6.5c0.5-2.1 0.6-4.3 0.9-6.4 0.2-2.2 0.5-4.4 0.6-6.5l0.3-6.5c0-1.1 0.1-2.2 0.1-3.3l-0.2-3.2c-0.2-2.2-0.1-4.4-0.4-6.5l-1-6.5c-0.3-2.2-1-4.2-1.4-6.3-2.2-8.5-5.9-16.6-10.4-24.2z"/>
				</g>
				<g id="&lt;Group&gt;">
					<path id="&lt;Path&gt;" class="s4" d="m830.3 386.1c1.7 2.9 3.7 5.7 5 8.9 0.6 1.6 1.4 3.1 1.9 4.7l1.6 4.9c0.5 1.7 0.7 3.4 1.1 5 0.3 1.7 0.7 3.4 0.9 5.1 0.3 3.4 0.7 6.9 0.6 10.3 0.2 13.8-2.4 27.3-6 40.4-0.9 3.3-2 6.5-3.1 9.7l-1.6 4.9-1.7 4.7c-2.4 6.4-5 12.6-7.8 18.7q-8.4 18.5-19 35.8c4.8-12.6 9.9-25 14.7-37.6 2.2-6.3 4.7-12.5 6.7-18.8l1.7-4.7 1.5-4.8c1-3.1 2-6.3 2.8-9.5 0.9-3.2 1.9-6.4 2.6-9.6 0.7-3.2 1.5-6.5 2-9.7l1-4.9c0.3-1.6 0.4-3.2 0.6-4.9l0.6-4.9 0.4-4.9c0.8-13.1-1.1-26.4-6.5-38.8z"/>
				</g>
				<g id="&lt;Group&gt;">
					<path id="&lt;Path&gt;" class="s4" d="m238.6 245.5c3.1-7.4 6.9-14.3 11.4-20.9 4.4-6.6 9.5-12.7 15.1-18.5 5.6-5.6 11.9-10.7 18.6-15 6.8-4.2 14.2-7.5 22-9.3-6.8 4.1-13.2 8.3-19.3 13.1-5.9 4.9-11.6 10-17 15.5l-4.1 4.1c-1.3 1.4-2.5 2.9-3.9 4.3-2.6 2.8-5.1 5.7-7.7 8.6z"/>
				</g>
				<g id="&lt;Group&gt;">
					<path id="&lt;Path&gt;" class="s4" d="m238.6 264.4c3.8-9.3 8.8-17.9 14.4-26.2 1.3-2.1 2.8-4.1 4.3-6.1 1.5-2 3.1-4 4.6-5.9 3.1-4 6.6-7.6 10-11.3 7-7.2 14.7-13.7 23.1-19.3 8.4-5.5 17.6-9.8 27.2-12.5-8.7 5-16.8 10.3-24.5 16.3-1.9 1.5-3.7 3.2-5.6 4.7l-2.8 2.3-2.6 2.5c-1.8 1.7-3.7 3.2-5.4 5l-5.1 5.2c-3.4 3.5-6.8 7-9.9 10.7-3.4 3.6-6.4 7.4-9.6 11.2-6.2 7.6-12.2 15.4-18.1 23.4z"/>
				</g>
				<g id="&lt;Group&gt;">
					<path id="&lt;Path&gt;" class="s4" d="m672.4 727.2c-10.3 12.8-21.8 24.5-34 35.6-6 5.5-12.3 10.8-18.7 15.9-6.5 5.1-13.1 10-19.9 14.7q-10.2 6.9-20.9 13.1c-7.1 4.1-14.5 7.9-22 11.3-7.5 3.4-15.2 6.4-23 9-7.8 2.4-15.8 4.4-23.9 5.7 7.8-2.6 15.4-5.3 22.9-8.5q11.2-4.8 22-10.4c14.3-7.5 28.2-16 41.5-25.2 13.5-9.1 26.4-18.9 39-29.1 12.6-10.3 24.9-21 37-32.1z"/>
				</g>
			</g>
			<g id="&lt;Group&gt;">
				<g id="&lt;Group&gt;">
					<g id="&lt;Group&gt;">
						<path id="&lt;Path&gt;" class="s19" d="m349.4 323q11.7 23.6 23.4 47.2c2.2 4.3 8.7 0.5 6.5-3.8q-11.7-23.6-23.4-47.1c-2.2-4.4-8.6-0.6-6.5 3.7z"/>
					</g>
				</g>
				<g id="&lt;Group&gt;">
					<g id="&lt;Group&gt;">
						<path id="&lt;Path&gt;" class="s19" d="m369.3 303.2q11.7 26.7 24 53c2 4.3 8.5 0.5 6.5-3.8q-12.4-26.3-24-53c-0.8-1.8-3.5-2.2-5.1-1.3-2 1.1-2.2 3.3-1.4 5.1z"/>
					</g>
				</g>
				<g id="&lt;Group&gt;">
					<g id="&lt;Group&gt;">
						<path id="&lt;Path&gt;" class="s19" d="m343.8 353.2c14.2-18.4 31.8-33.9 51.8-45.7 4.2-2.5 0.4-8.9-3.8-6.5-20.5 12.1-38.7 28.1-53.3 46.9-1.3 1.6-1.5 3.7 0 5.3 1.3 1.3 4.1 1.6 5.3 0z"/>
					</g>
				</g>
				<g id="&lt;Group&gt;">
					<g id="&lt;Group&gt;">
						<path id="&lt;Path&gt;" class="s19" d="m349.2 369.9c16.9-17 34.6-33.2 53.1-48.5 3.7-3.1-1.6-8.4-5.3-5.3-18.5 15.2-36.2 31.5-53.1 48.5-3.4 3.5 1.9 8.8 5.3 5.3z"/>
					</g>
				</g>
			</g>
			<g id="&lt;Group&gt;">
				<g id="&lt;Group&gt;">
					<g id="&lt;Group&gt;">
						<path id="&lt;Path&gt;" class="s19" d="m528.6 659.2q17.3 32.1 32.1 65.5c0.8 1.9 3.5 2.3 5.1 1.3 2-1.1 2.2-3.3 1.4-5.1q-14.8-33.4-32.1-65.5c-2.3-4.2-8.8-0.4-6.5 3.8z"/>
					</g>
				</g>
				<g id="&lt;Group&gt;">
					<g id="&lt;Group&gt;">
						<path id="&lt;Path&gt;" class="s19" d="m555.5 630.8c14.6 25.8 26.6 53.1 35.9 81.3 1.5 4.6 8.7 2.6 7.2-2-9.4-28.8-21.7-56.7-36.6-83.1-2.4-4.2-8.8-0.5-6.5 3.8z"/>
					</g>
				</g>
				<g id="&lt;Group&gt;">
					<g id="&lt;Group&gt;">
						<path id="&lt;Path&gt;" class="s19" d="m513.4 701.8q44.7-31.7 91-61.2c4.1-2.5 0.3-9-3.8-6.4q-46.2 29.4-91 61.1c-3.9 2.8-0.2 9.3 3.8 6.5z"/>
					</g>
				</g>
				<g id="&lt;Group&gt;">
					<g id="&lt;Group&gt;">
						<path id="&lt;Path&gt;" class="s19" d="m523.5 728.1c31.1-19 61.4-39.4 90.6-61.1 1.7-1.2 2.5-3.2 1.4-5.1-0.9-1.7-3.5-2.6-5.1-1.4-29.3 21.7-59.6 42.1-90.7 61.1-4.1 2.5-0.3 9 3.8 6.5z"/>
					</g>
				</g>
			</g>
		</g>
	</g>
</svg>