<svg version="1.2" xmlns="http://www.w3.org/2000/svg" viewBox="0 0 1000 1000" width="1000" height="1000">
	<title>9906347-ai</title>
	<style>
		.s0 { fill: #c2e6ff } 
		.s1 { fill: #fff0d2 } 
		.s2 { fill: #cac2f5 } 
		.s3 { fill: none;stroke: #fdf8ff;stroke-miterlimit:10;strokeWidth: 6 } 
		.s4 { fill: none;stroke: #7eaef2;stroke-linecap: round;strokeLinejoin: round;strokeWidth: 4 } 
		.s5 { fill: #80d7f9 } 
		.s6 { fill: #ffffff } 
		.s7 { fill: none;stroke: #463789;stroke-linecap: round;strokeLinejoin: round;strokeWidth: 20 } 
		.s8 { fill: #fce6f3 } 
		.s9 { fill: #fdf8ff } 
		.s10 { fill: #5757ad } 
		.s11 { fill: #8f87dd } 
		.s12 { fill: none;stroke: #5757ad;stroke-linecap: round;stroke-miterlimit:10;strokeWidth: 8 } 
		.s13 { fill: #febac9 } 
		.s14 { fill: #463789 } 
		.s15 { fill: #d2c4f5 } 
		.s16 { fill: none;stroke: #463789;stroke-miterlimit:10;strokeWidth: 6 } 
		.s17 { fill: #fd8392 } 
		.s18 { fill: #a89cf0 } 
		.s19 { fill: none;stroke: #463789;stroke-linecap: round;strokeLinejoin: round;strokeWidth: 8 } 
		.s20 { fill: none;stroke: #786fc9;stroke-miterlimit:10;strokeWidth: 8 } 
		.s21 { fill: none;stroke: #786fc9;stroke-linecap: round;stroke-miterlimit:10;strokeWidth: 8 } 
		.s22 { fill: #fcdee0 } 
		.s23 { fill: none;stroke: #8f87dd;stroke-miterlimit:10;strokeWidth: 8 } 
		.s24 { fill: none;stroke: #8f87dd;stroke-miterlimit:10;strokeWidth: 4 } 
	</style>
	<g id="BACKGROUND">
		<g id="&lt;Group&gt;">
			<path id="&lt;Path&gt;" class="s0" d="m2048 1035h-1000v-1000h1000z"/>
		</g>
	</g>
	<g id="OBJECTS">
		<path id="&lt;Path&gt;" class="s1" d="m693.3 194.1l84.4-123.3-4.1 149.4 140.7-50.1-91.1 118.4 143.3 42.2-143.3 42.2 91.1 118.4-140.7-50.1 4.1 149.3-84.4-123.2-84.4 123.2 4.1-149.3-140.7 50.1 91.1-118.4-143.3-42.2 143.3-42.2-91.1-118.4 140.7 50.1-4.1-149.4z"/>
		<path id="&lt;Path&gt;" class="s1" d="m344.3 523l85.4-79.3-28.8 112.9 115.7-14-89.6 74.4 101.7 56.7-116.2 7.6 49 105.6-98.5-62.2-22.5 114.3-43-108.2-85.4 79.2 28.8-112.9-115.7 14 89.6-74.4-101.7-56.7 116.2-7.5-49-105.7 98.5 62.2 22.5-114.3z"/>
		<g id="&lt;Group&gt;" style="mix-blend-mode: multiply">
			<path id="&lt;Path&gt;" class="s2" d="m743.8 832.5c0 26.3-109.1 47.6-243.8 47.6-134.7 0-243.8-21.3-243.8-47.6 0-26.2 109.1-47.5 243.8-47.5 134.7 0 243.8 21.3 243.8 47.5z"/>
		</g>
		<g id="&lt;Group&gt;">
			<path id="&lt;Path&gt;" class="s3" d="m957.9 395.8l-30 30"/>
			<path id="&lt;Path&gt;" class="s3" d="m957.9 425.8l-30-30"/>
		</g>
		<path id="&lt;Path&gt;" class="s1" d="m360.5 78.7l15.6-22.8-0.7 27.6 26-9.3-16.8 21.9 26.5 7.9-26.5 7.8 16.8 21.9-26-9.3 0.7 27.7-15.6-22.8-15.6 22.8 0.7-27.7-26 9.3 16.9-21.9-26.6-7.8 26.6-7.9-16.9-21.9 26 9.3-0.7-27.6z"/>
		<path id="&lt;Path&gt;" class="s1" d="m130.7 854.8l15.6-22.8-0.8 27.6 26.1-9.3-16.9 22 26.5 7.8-26.5 7.8 16.9 21.9-26.1-9.3 0.8 27.7-15.6-22.8-15.7 22.8 0.8-27.7-26.1 9.3 16.9-21.9-26.5-7.8 26.5-7.8-16.9-22 26.1 9.3-0.8-27.6z"/>
		<path id="&lt;Path&gt;" class="s1" d="m116.2 133.7l21.1-30.9-1 37.4 35.2-12.5-22.8 29.6 35.9 10.5-35.9 10.6 22.8 29.6-35.2-12.5 1 37.3-21.1-30.8-21.1 30.8 1-37.3-35.2 12.5 22.8-29.6-35.8-10.6 35.8-10.5-22.8-29.6 35.2 12.5-1-37.4z"/>
		<path id="&lt;Path&gt;" class="s1" d="m887.7 786.8l21.8-31.9-1.1 38.6 36.4-13-23.5 30.7 37 10.9-37 10.9 23.5 30.6-36.4-12.9 1.1 38.6-21.8-31.9-21.9 31.9 1.1-38.6-36.4 12.9 23.6-30.6-37.1-10.9 37.1-10.9-23.6-30.7 36.4 13-1.1-38.6z"/>
		<g id="&lt;Group&gt;">
			<path id="&lt;Path&gt;" class="s3" d="m240.4 55.8l-30 30"/>
			<path id="&lt;Path&gt;" class="s3" d="m240.4 85.8l-30-30"/>
		</g>
		<g id="&lt;Group&gt;">
			<path id="&lt;Path&gt;" class="s3" d="m109.3 636.3l-30 30"/>
			<path id="&lt;Path&gt;" class="s3" d="m109.3 666.3l-30-30"/>
		</g>
		<g id="&lt;Group&gt;">
			<path id="&lt;Path&gt;" class="s3" d="m294.7 919.5l-30 30"/>
			<path id="&lt;Path&gt;" class="s3" d="m294.7 949.5l-30-30"/>
		</g>
		<g id="&lt;Group&gt;">
			<path id="&lt;Path&gt;" class="s3" d="m891.6 640.1l-30 30"/>
			<path id="&lt;Path&gt;" class="s3" d="m891.6 670.1l-30-30"/>
		</g>
		<g id="&lt;Group&gt;">
			<path id="&lt;Path&gt;" class="s3" d="m741.8 913.2l-30 30"/>
			<path id="&lt;Path&gt;" class="s3" d="m741.8 943.2l-30-30"/>
		</g>
		<g id="&lt;Group&gt;">
			<path id="&lt;Path&gt;" class="s3" d="m891.6 70.8l-30 30"/>
			<path id="&lt;Path&gt;" class="s3" d="m891.6 100.8l-30-30"/>
		</g>
		<g id="&lt;Group&gt;">
			<path id="&lt;Path&gt;" class="s3" d="m532.8 89l-30 30"/>
			<path id="&lt;Path&gt;" class="s3" d="m532.8 119l-30-30"/>
		</g>
		<g id="&lt;Group&gt;">
			<g id="&lt;Group&gt;">
				<path id="&lt;Path&gt;" class="s0" d="m596.9 539.7c0 10.2-8.3 18.5-18.5 18.5-10.2 0-18.5-8.3-18.5-18.5 0-10.2 18.5-54.4 18.5-54.4 0 0 18.5 44.2 18.5 54.4z"/>
				<path id="&lt;Path&gt;" class="s4" d="m596.9 539.7c0 10.2-8.3 18.5-18.5 18.5-10.2 0-18.5-8.3-18.5-18.5 0-10.2 18.5-54.4 18.5-54.4 0 0 18.5 44.2 18.5 54.4z"/>
			</g>
			<g id="&lt;Group&gt;">
				<path id="&lt;Path&gt;" class="s5" d="m582.2 516.2c8.7 1.6 12.9 29.8 1.3 35.3-11 5.2-20.2-7-18.3-13.3 1.9-6.3 7.6-6.6 9.5-11.6 1.8-5.1 3.4-11.2 7.5-10.4z"/>
			</g>
			<g id="&lt;Group&gt;">
				<path id="&lt;Path&gt;" class="s6" d="m580.1 503.3c-4.3 0.1 1.8 29.3 5.5 28.8 3.7-0.5-0.8-29-5.5-28.8z"/>
			</g>
		</g>
		<g id="&lt;Group&gt;">
			<g id="&lt;Group&gt;">
				<g id="&lt;Group&gt;">
					<path id="&lt;Path&gt;" class="s7" d="m770.6 630.2c0 0 36.1-39.5 58.2-77.9 22.2-38.4-39.6-63.6-39.6-63.6"/>
				</g>
				<g id="&lt;Group&gt;">
					<path id="&lt;Path&gt;" class="s7" d="m143.9 456.5c0 0-15.3 77.7 29.6 97.6 44.8 19.9 104.2-49.1 104.2-49.1"/>
				</g>
				<g id="&lt;Group&gt;">
					<g id="&lt;Group&gt;">
						<path id="&lt;Path&gt;" class="s8" d="m254.5 403.6c14.1-101.4 52.1-163.7 123.7-175.4 87.1-14.3 101 27.5 170.9 34 69.8 6.5 91.2-32 174.1-1.9 68.3 24.7 94.1 93 89.2 195.3-5.6 117-66.3 194.4-100.8 254-47.2 81.5-63.4 137.6-100.4 130.7-64.1-11.8-60.2-153.7-101.3-157.6-41.1-3.8-63.4 136.4-128.6 136.3-37.6-0.1-43.2-58.3-74.6-147.1-22.9-64.9-68.3-152.2-52.2-268.3z"/>
					</g>
					<g id="&lt;Group&gt;">
						<path id="&lt;Path&gt;" class="s9" d="m406.9 252.4c-32-3.6-87.4 18.4-111.4 80.5-39.2 101.5-1.5 322 68.4 335.5 37.6 7.3 71-27 109.1-28.2 34.5-3 69.3 12.9 103.2 5.9 112.3-21 172.7-321.3 58.7-367.8-33.7-12.4-66 5.5-99.7 5.5-50.6-4.6-76.4-32-128.3-31.4z"/>
					</g>
					<g id="&lt;Group&gt;">
						<g id="&lt;Group&gt;">
							<path id="&lt;Path&gt;" class="s10" d="m639 255c-12.5 1.3-25.1 4.2-37.6 7.2-12.6 3-25.2 6.2-37.9 8.9-12.7 2.7-25.6 4.9-38.6 5.6-13 0.6-26.3-0.4-38.5-4.9 12.4 3.9 25.5 4.1 38.3 2.9 12.8-1.3 25.4-4.2 37.9-7.5 12.4-3.3 24.8-7.2 37.2-10.8 12.5-3.7 25.1-7.3 38.2-9.3 2.2-0.4 4.3 1.1 4.6 3.3 0.4 2.2-1.1 4.2-3.3 4.6q-0.1 0-0.2 0z"/>
						</g>
						<g id="&lt;Group&gt;">
							<path id="&lt;Path&gt;" class="s10" d="m524.6 698.2c-7.4-10.3-17.3-19.2-29.3-24.3-5.9-2.6-12.3-4.3-18.9-4.4-6.5-0.2-13.2 1.2-18.7 5 5.1-4.3 11.9-6.5 18.7-7 6.8-0.6 13.7 0.6 20.3 2.6 13.2 4.2 24.9 12.7 34.2 23.1 1.5 1.7 1.3 4.2-0.3 5.7-1.7 1.4-4.2 1.3-5.7-0.4q-0.1-0.1-0.2-0.3z"/>
						</g>
					</g>
					<g id="&lt;Group&gt;">
						<path id="&lt;Path&gt;" class="s2" d="m470.5 695.7c7.7-17.4-35.6 14.1-72.8 15.6-17.9 0.7-28.1 96.7-11.9 96.7 25.7 0 55.8-46.7 84.7-112.3z"/>
					</g>
					<g id="&lt;Group&gt;">
						<path id="&lt;Path&gt;" class="s2" d="m774.1 320.9c44 67.5 19.7 218.8-47.3 330.4-67.1 111.5-77.7 177.1-100.3 176.4-22.5-0.7-29.6-118.6-19-142.6 10.6-24 37.4 1.4 75.5-41.6 38.1-43.1 68.5-132.7 69.9-204 1.4-71.3-60.6-119.9-50.1-147.5 10.5-27.5 50.1-3.6 71.3 28.9z"/>
					</g>
					<path id="&lt;Path&gt;" class="s6" d="m457.7 302.5c12.7-28.6-76.8-48-119.9-3.5-43 44.5-60.7 138.4-24 145.4 40.1 7.7 22.3-61.4 59.5-90.3 37.2-29 72.2-24 84.4-51.6z"/>
					<g id="&lt;Group&gt;">
						<g id="&lt;Group&gt;">
							<g id="&lt;Group&gt;">
								<path id="&lt;Path&gt;" class="s2" d="m571.4 290.5c11.5-2 23.2-3.5 35-3.2 11.7 0.2 23.8 2.5 34.5 8.1 5.3 2.8 10.2 6.5 14.4 10.7 4.2 4.3 7.8 9.1 10.8 14.3 3 5.1 5.3 10.5 7.4 16 1.8 5.6 3.4 11.2 4.6 17-3.9-11-8.4-21.8-14.7-31.4-6.2-9.6-14.4-17.9-24.4-23.1-10-5.3-21.3-7.6-32.8-8.5-11.5-0.8-23.1-0.4-34.8 0.1z"/>
							</g>
							<g id="&lt;Group&gt;">
								<path id="&lt;Path&gt;" class="s2" d="m592.7 297.8c7.6-0.7 15.2-0.8 22.9 0.1 7.7 0.9 15.4 3 22.3 6.9 3.3 2.1 6.6 4.4 9.4 7.1l2.1 2.1c0.6 0.7 1.2 1.5 1.9 2.2l1.9 2.3 1.6 2.3c4.5 6.4 7.9 13.3 10.6 20.5-4.2-6.4-8.3-12.8-13.1-18.6-4.7-5.7-10.1-10.8-16.4-14.4-6.3-3.7-13.5-5.8-20.8-7.3-7.3-1.5-14.9-2.3-22.4-3.2z"/>
							</g>
							<g id="&lt;Group&gt;">
								<path id="&lt;Path&gt;" class="s2" d="m407 651.3c9.4-5.5 19.1-10.4 29.4-14.3 10.1-3.9 20.7-7 31.6-8.8 10.8-1.7 21.9-2.2 32.9-0.8 2.7 0.4 5.4 0.9 8.1 1.4l8 2.1 7.7 2.8q3.7 1.7 7.4 3.4c-10.3-3.6-20.9-5.8-31.6-6.6-10.6-0.7-21.3-0.1-31.9 1.7-10.6 1.6-21 4.4-31.2 7.7-10.2 3.4-20.4 7.3-30.4 11.4z"/>
							</g>
							<g id="&lt;Group&gt;">
								<path id="&lt;Path&gt;" class="s2" d="m424.6 634.3c7-3.9 14.3-7.4 21.9-10.2 7.6-2.7 15.5-4.7 23.6-5.8 8.1-1 16.3-1 24.3 0 8.1 1.1 16 3.1 23.4 6.1-7.9-1.4-15.8-2.5-23.6-3-7.9-0.4-15.8-0.1-23.6 0.9-7.8 0.9-15.5 2.7-23.2 4.8-7.6 2.1-15.2 4.8-22.8 7.2z"/>
							</g>
							<g id="&lt;Group&gt;">
								<path id="&lt;Path&gt;" class="s2" d="m290.5 460.7l5.3 36.6c1.9 12.1 3.9 24.2 6.3 36.2 4.7 24.1 10.9 47.8 18.8 71.2-5.4-11.1-9.9-22.7-13.6-34.5-3.8-11.7-6.7-23.8-9.1-35.9-2.4-12.1-4.2-24.3-5.5-36.6-1.2-12.3-1.9-24.6-2.2-37z"/>
							</g>
						</g>
					</g>
					<g id="&lt;Group&gt;">
						<g id="&lt;Group&gt;">
							<path id="&lt;Path&gt;" class="s11" d="m297.6 613.1c7.9 12.9 13.5 27.1 18.6 41.3 5 14.2 9.4 28.6 13.7 43l6.4 21.5c2.1 7.2 4.3 14.4 6.5 21.5 4.5 14.3 9.2 28.5 15.6 42.1-8.6-12.4-14.6-26.5-20-40.5-2.8-7.1-5.1-14.2-7.5-21.4-2.3-7.1-4.5-14.3-6.7-21.5l-12.5-43.3c-4.2-14.4-8.5-28.7-14.1-42.7z"/>
						</g>
						<g id="&lt;Group&gt;">
							<path id="&lt;Path&gt;" class="s11" d="m328.2 676.7c3.7 5.9 6.6 12.2 9.3 18.6 2.7 6.4 5.1 12.8 7.3 19.4 2.1 6.6 4 13.2 5.7 19.9 1.6 6.7 3 13.5 3.9 20.4-3.2-6.2-5.9-12.6-8.4-19-2.5-6.4-4.8-12.9-6.9-19.4-2.2-6.6-4.2-13.1-6-19.8-1.8-6.6-3.5-13.3-4.9-20.1z"/>
						</g>
						<g id="&lt;Group&gt;">
							<path id="&lt;Path&gt;" class="s11" d="m537.7 690.5c4.9 3.8 8.8 8.8 12.1 14.1 3.2 5.4 5.9 11 8.2 16.8 4.7 11.5 8 23.4 11.4 35.2q2.5 8.8 5.2 17.6c1.7 5.8 3.7 11.5 5.8 17.2 4.4 11.2 9.9 22.1 18.8 30.7-5.2-3.2-9.7-7.8-13.5-12.8-3.8-5-6.9-10.4-9.6-16.1-5.3-11.3-9-23.2-12.4-35l-4.9-17.7c-1.6-5.9-3.4-11.7-5.2-17.5-3.8-11.5-8-23-15.9-32.5z"/>
						</g>
						<g id="&lt;Group&gt;">
							<path id="&lt;Path&gt;" class="s11" d="m784.5 474c0.2-14.9 1.5-29.7 1.8-44.4 0.2-14.7-0.2-29.4-2.3-43.8-1.8-14.5-5.5-28.7-10.8-42.3-5.3-13.6-12.4-26.5-20.5-38.9 10.1 10.9 18.6 23.5 24.8 37.1 1.5 3.5 3.2 6.9 4.4 10.4 1.1 3.6 2.4 7.2 3.5 10.8l2.7 11 1.9 11.1c0.4 3.7 0.7 7.5 1.1 11.2 0.3 3.7 0.4 7.5 0.6 11.2 0 3.8-0.1 7.5-0.1 11.3-0.2 3.7-0.4 7.4-0.7 11.2-1.2 14.9-3.7 29.5-6.4 44.1z"/>
						</g>
						<g id="&lt;Group&gt;">
							<path id="&lt;Path&gt;" class="s11" d="m757.8 325.4c3.8 4.1 6.4 9.2 8.9 14.2 2.3 5.1 4.5 10.3 6.2 15.6 0.9 2.7 1.9 5.4 2.6 8.1 0.7 2.7 1.5 5.4 2.1 8.1 1.3 5.5 2.2 11 3.2 16.5l1 8.4c0.3 2.8 0.5 5.6 0.7 8.4l0.2 4.2v4.2c0.1 2.8 0.2 5.6 0 8.4-0.3 11.2-2 22.4-4.6 33.2 0.2-11.2 0.5-22.2-0.1-33.1 0-1.4-0.1-2.8-0.2-4.2l-0.3-4.1-0.3-4.1-0.4-4.1c-0.3-2.7-0.4-5.4-0.8-8.1l-1.1-8.2-1.3-8.1c-0.4-2.7-1.1-5.4-1.5-8.1-1-5.4-2.3-10.7-3.6-16q-2-8-4.5-15.9c-1.7-5.2-3.5-10.4-6.2-15.3z"/>
						</g>
					</g>
					<g id="&lt;Group&gt;">
						<path id="&lt;Path&gt;" class="s12" d="m254.5 403.6c14.1-101.4 52.1-163.7 123.7-175.4 87.1-14.3 101 27.5 170.9 34 69.8 6.5 91.2-32 174.1-1.9 68.3 24.7 94.1 93 89.2 195.3-5.6 117-66.3 194.4-100.8 254-47.2 81.5-63.4 137.6-100.4 130.7-64.1-11.8-60.2-153.7-101.3-157.6-41.1-3.8-63.4 136.4-128.6 136.3-37.6-0.1-43.2-58.3-74.6-147.1-22.9-64.9-68.3-152.2-52.2-268.3z"/>
					</g>
					<g id="&lt;Group&gt;">
						<g id="&lt;Group&gt;">
							<g id="&lt;Group&gt;">
								<path id="&lt;Path&gt;" class="s11" d="m347.9 316.2q12.5 27.3 25.1 54.5c2 4.4 8.5 0.6 6.5-3.8q-12.6-27.2-25.2-54.4c-2-4.4-8.5-0.6-6.4 3.7z"/>
							</g>
						</g>
						<g id="&lt;Group&gt;">
							<g id="&lt;Group&gt;">
								<path id="&lt;Path&gt;" class="s11" d="m368.8 304.2c15.1 18.9 20.7 43.4 34.6 63.1 2.8 3.9 9.3 0.2 6.5-3.8-14.3-20.2-20.3-45.1-35.8-64.6-1.3-1.6-4-1.3-5.3 0-1.6 1.5-1.3 3.7 0 5.3z"/>
							</g>
						</g>
						<g id="&lt;Group&gt;">
							<g id="&lt;Group&gt;">
								<path id="&lt;Path&gt;" class="s11" d="m328.7 346.4q42.3-17.2 84.7-34.4c1.9-0.8 3.2-2.5 2.6-4.7-0.5-1.7-2.7-3.3-4.6-2.6q-42.4 17.2-84.7 34.4c-1.9 0.8-3.3 2.5-2.7 4.7 0.5 1.7 2.8 3.3 4.7 2.6z"/>
							</g>
						</g>
						<g id="&lt;Group&gt;">
							<g id="&lt;Group&gt;">
								<path id="&lt;Path&gt;" class="s11" d="m334.2 370c31.6-12.3 62.3-26.7 92-43.2 4.2-2.4 0.4-8.8-3.8-6.5-29.1 16.2-59.2 30.4-90.2 42.5-1.9 0.7-3.2 2.5-2.6 4.6 0.5 1.8 2.7 3.4 4.6 2.6z"/>
							</g>
						</g>
					</g>
					<g id="&lt;Group&gt;">
						<g id="&lt;Group&gt;">
							<g id="&lt;Group&gt;">
								<path id="&lt;Path&gt;" class="s11" d="m625.1 686q-7 21.9-14.1 43.8c-1.5 4.6 5.7 6.6 7.2 2q7.1-21.9 14.2-43.8c1.5-4.6-5.8-6.6-7.3-2z"/>
							</g>
						</g>
						<g id="&lt;Group&gt;">
							<g id="&lt;Group&gt;">
								<path id="&lt;Path&gt;" class="s11" d="m643.1 690.4c-1.4 18.7-10.9 35.7-13.4 54.3-0.2 2 1.9 3.7 3.8 3.7 2.2 0 3.5-1.7 3.7-3.7 2.5-18.6 12-35.5 13.4-54.3 0.4-4.9-7.1-4.8-7.5 0z"/>
							</g>
						</g>
						<g id="&lt;Group&gt;">
							<g id="&lt;Group&gt;">
								<path id="&lt;Path&gt;" class="s11" d="m599.8 694.4q32.8 12.4 65.6 24.7c4.6 1.8 6.5-5.5 2-7.2q-32.8-12.3-65.6-24.7c-4.5-1.7-6.5 5.6-2 7.2z"/>
							</g>
						</g>
						<g id="&lt;Group&gt;">
							<g id="&lt;Group&gt;">
								<path id="&lt;Path&gt;" class="s11" d="m590.6 710.6c24 9.4 48.6 17.2 73.6 23.3 4.7 1.1 6.7-6.1 2-7.2-25-6.1-49.6-13.9-73.6-23.3-1.9-0.7-4.1 0.8-4.6 2.6-0.6 2.1 0.7 3.9 2.6 4.6z"/>
							</g>
						</g>
					</g>
				</g>
				<g id="&lt;Group&gt;">
					<g id="&lt;Group&gt;">
						<path id="&lt;Path&gt;" class="s13" d="m575.2 520.2c-1.9 12.7 13.7 25.6 34.9 28.8 21.2 3.3 40-4.3 41.9-17 2-12.6-13.7-25.5-34.9-28.8-21.2-3.2-40 4.4-41.9 17z"/>
					</g>
					<g id="&lt;Group&gt;">
						<path id="&lt;Path&gt;" class="s13" d="m414.4 488.9c-1.9 12.7-19.3 20.5-38.8 17.5-19.5-3-33.8-15.7-31.8-28.3 1.9-12.6 19.3-20.5 38.8-17.5 19.5 3 33.8 15.7 31.8 28.3z"/>
					</g>
					<g id="&lt;Group&gt;">
						<g id="&lt;Group&gt;">
							<path id="&lt;Path&gt;" class="s9" d="m538.9 463.7c-5.1 33.1 7.6 62.5 28.2 65.6 20.7 3.2 41.6-21 46.6-54.1 5.1-33-7.5-62.4-28.2-65.6-20.7-3.2-41.5 21.1-46.6 54.1z"/>
						</g>
						<g id="&lt;Group&gt;">
							<path id="&lt;Path&gt;" class="s14" d="m538.9 463.7c-1.3 8.3-1.4 16.2-0.6 23.7 3.4 3.3 7.4 5.5 11.9 6.2 17 2.6 34.2-17.3 38.4-44.6 2.3-15.2 0.1-29.5-5.3-39.6-19.9-1.2-39.5 22.5-44.4 54.3z"/>
						</g>
						<g id="&lt;Group&gt;" style="opacity: .8;mix-blend-mode: multiply">
							<path id="&lt;Path&gt;" class="s15" d="m585.5 409.6c20.7 3.2 33.3 32.6 28.2 65.6q-0.7 4.5-1.7 8.7c-24.2-24.9-53.4-42.1-64.2-48 9.2-17.7 23.5-28.5 37.7-26.3z"/>
						</g>
						<g id="&lt;Group&gt;">
							<path id="&lt;Path&gt;" class="s16" d="m538.9 463.7c-5.1 33.1 7.6 62.5 28.2 65.6 20.7 3.2 41.6-21 46.6-54.1 5.1-33-7.5-62.4-28.2-65.6-20.7-3.2-41.5 21.1-46.6 54.1z"/>
						</g>
						<g id="&lt;Group&gt;">
							<path id="&lt;Path&gt;" class="s6" d="m566.6 455.9c-0.7 5 6.1 10.3 15.4 11.7 9.3 1.4 17.4-1.5 18.2-6.6 0.8-5.1-6.1-10.3-15.4-11.7-9.2-1.5-17.4 1.5-18.2 6.6z"/>
						</g>
						<path id="&lt;Path&gt;" class="s6" d="m553.2 474.9c-0.6 3.8 2 7.4 5.8 8 3.8 0.6 7.4-2.1 8-5.9 0.5-3.8-2.1-7.3-5.9-7.9-3.8-0.6-7.3 2-7.9 5.8z"/>
					</g>
					<g id="&lt;Group&gt;">
						<path id="&lt;Path&gt;" class="s17" d="m465.5 481.9c-1.4 9.3 9.7 18.7 24.8 21 15.2 2.4 28.6-3.3 30-12.5 1.4-9.3-9.7-18.7-24.8-21-15.2-2.4-28.6 3.3-30 12.5z"/>
					</g>
					<g id="&lt;Group&gt;">
						<path id="&lt;Path&gt;" class="s18" d="m634.6 402.9c0 0-31.8-9.2-46.4-25.1-17-18.4-8.6-36.1 3.1-29.9 14.7 7.9 12.4 35.1 43.3 55z"/>
					</g>
					<g id="&lt;Group&gt;">
						<path id="&lt;Path&gt;" class="s18" d="m402 399.4c0 0 31.1 4 49.9-4.8 21.8-10.2 21.2-29.9 8.7-28.7-15.8 1.4-24.2 27.3-58.6 33.5z"/>
					</g>
					<g id="&lt;Group&gt;">
						<g id="&lt;Group&gt;">
							<path id="&lt;Path&gt;" class="s14" d="m383 446.5c0 0 31.7-25.5 60.6 5.5 19.5 20.9 14.6 33.4 8.1 31-6.8-2.5-26.3-36-78.5-10.3 0 0 12.9-17.6 28.4-25 0 0-7.5-4.5-18.6-1.2z"/>
						</g>
						<g id="&lt;Group&gt;">
							<path id="&lt;Path&gt;" class="s18" d="m407.9 451.4c0 0 17.2 3.6 28.4 13.2 11.2 9.5 10.5 1.1 5.9-5.5-7-9.8-23.4-17.7-34.3-7.7z"/>
						</g>
					</g>
					<g id="&lt;Group&gt;">
						<path id="&lt;Path&gt;" class="s19" d="m446.1 540.4c0 0 46-25 87.7 2.5"/>
					</g>
				</g>
				<g id="&lt;Group&gt;">
					<g id="&lt;Group&gt;">
						<path id="&lt;Path&gt;" class="s2" d="m744.5 555.8c11.4-12.8 34.2-13.4 60.3 11.9 30 29 27.3 52.9 16.7 63.9-17.2 17.9-40.5-0.1-58.1-18.7-11.2-11.9-34.4-39.6-18.9-57.1z"/>
						<path id="&lt;Path&gt;" class="s20" d="m744.5 555.8c11.4-12.8 34.2-13.4 60.3 11.9 30 29 27.3 52.9 16.7 63.9-17.2 17.9-40.5-0.1-58.1-18.7-11.2-11.9-34.4-39.6-18.9-57.1z"/>
					</g>
					<g id="&lt;Group&gt;">
						<g id="&lt;Group&gt;">
							<path id="&lt;Path&gt;" class="s9" d="m790.9 599c-26.2-31.9-55.2-18.1-68.7-9.3-14.3 9.3-46.8 34-40.4 49.4 9.2 21.9 37.1-7.4 43.2-6.6 6 0.7-7.9 25-23.1 43.6-15.2 18.4-20.8 36.6-4.4 40.4 0 0-8.2 12.5-0.4 18.8 10.9 8.9 22.4 0 22.4 0 0 0 5.2 10 26.8-1.3 21.6-11.2 45.2-36.1 53.8-63 8.5-26.9 7.5-51.8-9.2-72z"/>
						</g>
						<g id="&lt;Group&gt;">
							<g id="&lt;Group&gt;">
								<g id="&lt;Group&gt;">
									<path id="&lt;Path&gt;" class="s2" d="m693.3 715c6.3-0.2 12-2.1 17.2-4.9 5.1-2.9 9.9-6.5 14.4-10.4 4.4-4 8.6-8.4 12.7-12.9l12.2-14c-2 6-4.9 11.6-8.5 16.9-3.5 5.3-7.6 10.2-12.5 14.4-4.8 4.3-10.2 8-16.4 10.3-6.1 2.3-13.2 2.9-19.1 0.6z"/>
								</g>
								<g id="&lt;Group&gt;">
									<path id="&lt;Path&gt;" class="s2" d="m708.5 738.7c5.4-3.4 10.6-6.8 15.6-10.4 5-3.6 9.9-7.3 14.6-11.2q7.2-5.9 13.9-12.2c4.5-4.2 8.9-8.5 13.1-13.3-2.1 6-5.6 11.5-9.6 16.5-4 5-8.6 9.5-13.6 13.6-4.9 4-10.3 7.6-16 10.6-5.6 2.9-11.7 5.3-18 6.4z"/>
								</g>
							</g>
						</g>
						<g id="&lt;Group&gt;">
							<g id="&lt;Group&gt;">
								<g id="&lt;Group&gt;">
									<path id="&lt;Path&gt;" class="s2" d="m793.9 598.8c-0.1 5.2-0.7 10-1.6 14.9-0.8 4.8-1.9 9.6-3.3 14.3-1.4 4.7-2.9 9.4-4.8 13.9-1.8 4.5-3.9 8.9-6.1 13.2 1.7-4.5 3.4-9.1 4.7-13.7 1.4-4.6 2.4-9.3 3.3-14 0.9-4.8 1.4-9.5 1.8-14.3 0.3-4.7 0.4-9.5 0-14z"/>
								</g>
								<g id="&lt;Group&gt;">
									<path id="&lt;Path&gt;" class="s2" d="m783.9 591.5c-2.5 2.4-4.9 4.9-7.2 7.4q-3.6 3.8-6.9 7.7-6.9 7.8-13 16.2 4.9-9.2 10.6-18 2.8-4.4 5.8-8.7c2-2.9 4-5.7 6.2-8.6z"/>
								</g>
								<g id="&lt;Group&gt;">
									<path id="&lt;Path&gt;" class="s2" d="m804.5 616.5c0.1 0.7 0.1 1 0.1 1.3v1 2 3.9q-0.2 3.9-0.4 7.8c-0.4 5.1-1 10.3-2.1 15.3 0.1-5.1-0.3-10.2-0.9-15.3q-0.5-3.7-1.1-7.5l-0.7-3.7-0.4-1.8-0.2-0.9c0-0.3-0.1-0.6-0.1-0.6z"/>
								</g>
							</g>
						</g>
						<g id="&lt;Group&gt;">
							<path id="&lt;Path&gt;" class="s21" d="m790.9 599c-26.2-31.9-55.2-18.1-68.7-9.3-14.3 9.3-46.8 34-40.4 49.4 9.2 21.9 37.1-7.4 43.2-6.6 6 0.7-7.9 25-23.1 43.6-15.2 18.4-20.8 36.6-4.4 40.4 0 0-8.2 12.5-0.4 18.8 10.9 8.9 22.4 0 22.4 0 0 0 5.2 10 26.8-1.3 21.6-11.2 45.2-36.1 53.8-63 8.5-26.9 7.5-51.8-9.2-72z"/>
						</g>
					</g>
				</g>
				<g id="&lt;Group&gt;">
					<g id="&lt;Group&gt;">
						<path id="&lt;Path&gt;" class="s2" d="m166.2 414.7c21.8 7.3 48 25.5 38.2 51.6-9.9 26.1-54.9 28.6-79.5 17.7-24.6-10.9-36.6-34.3-27.7-54.5 8.9-20.2 40.3-24.3 69-14.8z"/>
						<path id="&lt;Path&gt;" class="s20" d="m166.2 414.7c21.8 7.3 48 25.5 38.2 51.6-9.9 26.1-54.9 28.6-79.5 17.7-24.6-10.9-36.6-34.3-27.7-54.5 8.9-20.2 40.3-24.3 69-14.8z"/>
					</g>
					<g id="&lt;Group&gt;">
						<path id="&lt;Path&gt;" class="s9" d="m142.6 450c-26.9-7.4-47.1-19.4-45.6-63.2 1.6-43.8 18.9-83.7 25.4-93.9 7.6-11.8 20.5-10.2 20.3 4.5-0.3 14.7-6.3 32.1-6.7 42.6 0 0 8-38.5 21.5-52.4 13.5-13.9 24-12.3 27.3-1.3 3.6 11.9-13.2 25.8-18.3 56.3 0 0 4.1-11.3 22.5-16 18.4-4.6 29.6 6.1 34.3 17.3 4.7 11.2 1.3 21.7-7.1 22.4-8.4 0.6-5.9-12.6-25.7-8.5-19.7 4.1-29 25.8-18.5 41.7 9.8 14.8 27.4 8.5 33.7 3.5 6.2-5 9.4-13.4 19-10.9 9.6 2.5 9 28.8-12.6 46-21.5 17.1-54.9 15.9-69.5 11.9z"/>
					</g>
					<g id="&lt;Group&gt;">
						<g id="&lt;Group&gt;">
							<path id="&lt;Path&gt;" class="s2" d="m130.7 357.8c3.1 5.5 5.4 11.3 7.4 17.2 2 5.9 3.5 12 4.7 18.1 1.1 6.2 1.8 12.4 1.9 18.7 0.1 6.3-0.4 12.6-2 18.7-0.9-6.2-1.7-12.2-2.6-18.3l-3.2-18c-1.1-6-2.3-12-3.4-18-1.1-6.1-2.1-12.1-2.8-18.4z"/>
						</g>
						<g id="&lt;Group&gt;">
							<path id="&lt;Path&gt;" class="s2" d="m161.5 365.8c-2.1 1.7-4.5 2.7-6.9 3.4-2.4 0.7-4.9 1-7.4 1-2.5 0-5-0.4-7.4-1.2-2.5-0.7-4.8-1.9-6.8-3.6 2.6-0.7 5-0.8 7.3-1q3.5-0.3 6.9-0.2 3.5 0 7 0.3c2.3 0.3 4.7 0.6 7.3 1.3z"/>
						</g>
					</g>
					<g id="&lt;Group&gt;">
						<path id="&lt;Path&gt;" class="s21" d="m142.6 450c-26.9-7.4-47.1-19.4-45.6-63.2 1.6-43.8 18.9-83.7 25.4-93.9 7.6-11.8 20.5-10.2 20.3 4.5-0.3 14.7-6.3 32.1-6.7 42.6 0 0 8-38.5 21.5-52.4 13.5-13.9 24-12.3 27.3-1.3 3.6 11.9-13.2 25.8-18.3 56.3 0 0 4.1-11.3 22.5-16 18.4-4.6 29.6 6.1 34.3 17.3 4.7 11.2 1.3 21.7-7.1 22.4-8.4 0.6-5.9-12.6-25.7-8.5-19.7 4.1-29 25.8-18.5 41.7 9.8 14.8 27.4 8.5 33.7 3.5 6.2-5 9.4-13.4 19-10.9 9.6 2.5 9 28.8-12.6 46-21.5 17.1-54.9 15.9-69.5 11.9z"/>
					</g>
					<g id="&lt;Group&gt;">
						<g id="&lt;Group&gt;">
							<g id="&lt;Group&gt;">
								<path id="&lt;Path&gt;" class="s22" d="m451.2 245.5l-192.3 152.3c-19.4 15.3-47.7 12-63-7.3-15.3-19.3-12-47.7 7.3-63l192.4-152.2c19.3-15.3 47.7-12 63 7.3 15.3 19.3 12 47.6-7.4 62.9z"/>
								<path id="&lt;Path&gt;" class="s23" d="m451.2 245.5l-192.3 152.3c-19.4 15.3-47.7 12-63-7.3-15.3-19.3-12-47.7 7.3-63l192.4-152.2c19.3-15.3 47.7-12 63 7.3 15.3 19.3 12 47.6-7.4 62.9z"/>
							</g>
							<g id="&lt;Group&gt;">
								<g id="&lt;Group&gt;">
									<g id="&lt;Group&gt;">
										<path id="&lt;Path&gt;" class="s2" d="m216.6 350.1c1.6 2 1.3 4.9-0.7 6.4-2 1.6-4.9 1.3-6.5-0.7-1.6-2-1.2-4.9 0.8-6.5 2-1.6 4.8-1.2 6.4 0.8z"/>
										<path id="&lt;Path&gt;" class="s2" d="m232.6 337.4c1.6 2 1.3 4.9-0.7 6.5-2 1.5-4.9 1.2-6.5-0.8-1.6-2-1.2-4.9 0.8-6.5 2-1.5 4.9-1.2 6.4 0.8z"/>
										<path id="&lt;Path&gt;" class="s2" d="m248.6 324.7c1.6 2 1.3 4.9-0.7 6.5-2 1.6-4.9 1.2-6.5-0.8-1.5-2-1.2-4.9 0.8-6.4 2-1.6 4.9-1.3 6.4 0.7z"/>
										<path id="&lt;Path&gt;" class="s2" d="m228.3 364.8c1.6 2 1.3 4.9-0.7 6.5-2 1.6-4.9 1.2-6.5-0.8-1.6-1.9-1.2-4.8 0.7-6.4 2-1.6 4.9-1.3 6.5 0.7z"/>
										<path id="&lt;Path&gt;" class="s2" d="m244.3 352.2c1.6 2 1.3 4.8-0.7 6.4-2 1.6-4.9 1.3-6.5-0.7-1.6-2-1.2-4.9 0.8-6.5 2-1.6 4.8-1.2 6.4 0.8z"/>
										<path id="&lt;Path&gt;" class="s2" d="m260.3 339.5c1.6 2 1.3 4.9-0.7 6.5-2 1.5-4.9 1.2-6.5-0.8-1.6-2-1.2-4.9 0.8-6.5 2-1.5 4.9-1.2 6.4 0.8z"/>
										<path id="&lt;Path&gt;" class="s2" d="m240 379.6c1.6 2 1.2 4.9-0.8 6.5-1.9 1.5-4.8 1.2-6.4-0.8-1.6-2-1.3-4.9 0.7-6.5 2-1.5 4.9-1.2 6.5 0.8z"/>
										<path id="&lt;Path&gt;" class="s2" d="m256 366.9c1.6 2 1.3 4.9-0.7 6.5-2 1.6-4.9 1.2-6.5-0.8-1.6-2-1.2-4.8 0.7-6.4 2-1.6 4.9-1.3 6.5 0.7z"/>
										<path id="&lt;Path&gt;" class="s2" d="m272 354.3c1.6 1.9 1.3 4.8-0.7 6.4-2 1.6-4.9 1.3-6.5-0.7-1.6-2-1.2-4.9 0.8-6.5 1.9-1.6 4.8-1.2 6.4 0.8z"/>
									</g>
									<g id="&lt;Group&gt;">
										<path id="&lt;Path&gt;" class="s2" d="m389.6 213.1c1.6 2 1.3 4.9-0.7 6.5-2 1.6-4.9 1.2-6.5-0.8-1.5-2-1.2-4.9 0.8-6.4 2-1.6 4.9-1.3 6.4 0.7z"/>
										<path id="&lt;Path&gt;" class="s2" d="m405.7 200.4c1.5 2 1.2 4.9-0.8 6.5-2 1.6-4.9 1.2-6.5-0.7-1.5-2-1.2-4.9 0.8-6.5 2-1.6 4.9-1.3 6.5 0.7z"/>
										<path id="&lt;Path&gt;" class="s2" d="m421.7 187.8c1.5 2 1.2 4.9-0.8 6.4-2 1.6-4.9 1.3-6.4-0.7-1.6-2-1.3-4.9 0.7-6.5 2-1.6 4.9-1.2 6.5 0.8z"/>
										<path id="&lt;Path&gt;" class="s2" d="m401.3 227.9c1.6 2 1.3 4.9-0.7 6.4-2 1.6-4.9 1.3-6.5-0.7-1.6-2-1.2-4.9 0.8-6.5 2-1.5 4.9-1.2 6.4 0.8z"/>
										<path id="&lt;Path&gt;" class="s2" d="m417.3 215.2c1.6 2 1.3 4.9-0.7 6.5-2 1.6-4.9 1.2-6.5-0.8-1.5-2-1.2-4.9 0.8-6.4 2-1.6 4.9-1.3 6.4 0.7z"/>
										<path id="&lt;Path&gt;" class="s2" d="m433.4 202.5c1.5 2 1.2 4.9-0.8 6.5-2 1.6-4.9 1.2-6.5-0.8-1.5-1.9-1.2-4.8 0.8-6.4 2-1.6 4.9-1.3 6.5 0.7z"/>
										<path id="&lt;Path&gt;" class="s2" d="m413 242.6c1.6 2 1.3 4.9-0.7 6.5-2 1.6-4.9 1.3-6.5-0.7-1.6-2-1.2-4.9 0.8-6.5 1.9-1.6 4.8-1.2 6.4 0.7z"/>
										<path id="&lt;Path&gt;" class="s2" d="m429 230c1.6 2 1.3 4.9-0.7 6.4-2 1.6-4.9 1.3-6.5-0.7-1.6-2-1.2-4.9 0.8-6.5 2-1.6 4.9-1.2 6.4 0.8z"/>
										<path id="&lt;Path&gt;" class="s2" d="m445 217.3c1.6 2 1.3 4.9-0.7 6.5-2 1.5-4.9 1.2-6.5-0.8-1.6-2-1.2-4.9 0.8-6.5 2-1.5 4.9-1.2 6.4 0.8z"/>
									</g>
								</g>
							</g>
						</g>
						<g id="&lt;Group&gt;">
							<g id="&lt;Group&gt;">
								<path id="&lt;Path&gt;" class="s13" d="m392.4 275.9l-90.5 71.7c-6.6 5.2-16.3 4.1-21.6-2.6l-20.8-26.2c-5.2-6.7-4.1-16.4 2.5-21.6l90.5-71.7c6.7-5.2 16.4-4.1 21.7 2.5l20.7 26.3c5.3 6.6 4.2 16.4-2.5 21.6z"/>
								<path id="&lt;Path&gt;" class="s24" d="m392.4 275.9l-90.5 71.7c-6.6 5.2-16.3 4.1-21.6-2.6l-20.8-26.2c-5.2-6.7-4.1-16.4 2.5-21.6l90.5-71.7c6.7-5.2 16.4-4.1 21.7 2.5l20.7 26.3c5.3 6.6 4.2 16.4-2.5 21.6z"/>
							</g>
							<g id="&lt;Group&gt;">
								<path id="&lt;Path&gt;" class="s22" d="m375.9 276l-77.6 61.4c-5.3 4.2-13.1 3.3-17.3-2l-15-18.9c-4.2-5.3-3.2-13.1 2.1-17.3l77.5-61.4c5.3-4.2 13.1-3.3 17.3 2l15 18.9c4.2 5.3 3.3 13.1-2 17.3z"/>
							</g>
							<g id="&lt;Group&gt;">
								<path id="&lt;Path&gt;" class="s13" d="m326.6 319.8l57.3-45.3"/>
								<path id="&lt;Path&gt;" class="s11" d="m326.6 319.8c4.2-4.4 8.8-8.6 13.3-12.6 4.6-4 9.3-7.8 14.1-11.6 4.8-3.8 9.6-7.5 14.6-11 4.9-3.6 10-7 15.3-10.1-4.3 4.4-8.8 8.5-13.4 12.5-4.6 4-9.3 7.9-14 11.7-4.8 3.7-9.7 7.4-14.6 11-5 3.5-10 7-15.3 10.1z"/>
							</g>
							<g id="&lt;Group&gt;">
								<path id="&lt;Path&gt;" class="s13" d="m368.5 230.8l21.2 26.7"/>
								<path id="&lt;Path&gt;" class="s11" d="m368.5 230.8c2.4 1.7 4.5 3.6 6.5 5.7q3 3 5.7 6.4 2.6 3.3 4.9 6.9c1.6 2.5 3 5 4.1 7.7-2.4-1.7-4.5-3.7-6.5-5.7q-3-3.1-5.7-6.4-2.6-3.4-4.9-7c-1.5-2.4-3-4.9-4.1-7.6z"/>
							</g>
						</g>
					</g>
					<g id="&lt;Group&gt;">
						<g id="&lt;Group&gt;">
							<path id="&lt;Path&gt;" class="s9" d="m166.5 342.6c0 0 4.1-11.3 22.5-16 18.4-4.6 29.6 6.1 34.3 17.3 4.7 11.2 1.3 21.7-7.1 22.4-8.4 0.6-5.9-12.6-25.7-8.5-6.9 1.4-12.6 5.1-16.6 9.9"/>
						</g>
						<g id="&lt;Group&gt;">
							<path id="&lt;Path&gt;" class="s21" d="m166.5 342.6c0 0 4.1-11.3 22.5-16 18.4-4.6 29.6 6.1 34.3 17.3 4.7 11.2 1.3 21.7-7.1 22.4-8.4 0.6-5.9-12.6-25.7-8.5-6.9 1.4-12.6 5.1-16.6 9.9"/>
						</g>
					</g>
				</g>
			</g>
			<g id="&lt;Group&gt;">
				<g id="&lt;Group&gt;">
					<path id="&lt;Path&gt;" class="s9" d="m257 579c7.9 14.7 14.8 29.8 21.3 45.1 3.2 7.7 6.2 15.5 9.2 23.2 3 7.8 5.8 15.6 8.6 23.4 2.7 7.9 5.4 15.8 7.9 23.7q1.8 6 3.6 11.9 1.8 6 3.4 12c4.4 16.1 8.3 32.3 11 48.7-5.2-15.8-10.3-31.6-15.5-47.3-2.6-7.8-5.2-15.7-7.9-23.5q-4-11.8-8.1-23.5c-2.7-7.8-5.5-15.6-8.3-23.4l-8.3-23.5z"/>
				</g>
				<g id="&lt;Group&gt;">
					<path id="&lt;Path&gt;" class="s9" d="m418.1 822.1c9.2-7.7 16-17.6 22.4-27.5 3.2-5 6.3-10.1 9.2-15.3 3-5.1 6-10.3 8.9-15.6l8.8-15.6c3-5.2 5.9-10.4 9.1-15.6 6.3-10.2 12.9-20.4 21.1-29.3-6.2 10.3-11.5 21-17 31.6-2.7 5.4-5.5 10.7-8.2 16q-4.2 8-8.6 15.9c-5.9 10.4-12.1 20.8-19.4 30.5-3.6 4.9-7.6 9.6-11.9 13.9-4.3 4.3-9.1 8.2-14.4 11z"/>
				</g>
				<g id="&lt;Group&gt;">
					<path id="&lt;Path&gt;" class="s9" d="m490 724.8c-2.1 8.7-5.1 17-8.6 25.2-3.4 8.1-7.5 16-11.9 23.7-4.4 7.7-9.4 15.1-14.7 22.1-5.4 7.1-11.4 13.7-18 19.7 4.7-7.6 9.6-14.8 14.1-22.3q6.9-11.2 13.4-22.5c2.3-3.7 4.3-7.6 6.5-11.3l6.4-11.5z"/>
				</g>
				<g id="&lt;Group&gt;">
					<path id="&lt;Path&gt;" class="s9" d="m693.3 762.6c-1.9 6.1-4.3 11.8-6.9 17.4-2.5 5.7-5.4 11.2-8.3 16.6-3 5.4-6.1 10.8-9.5 16-3.4 5.2-6.9 10.3-11 15.1 1.9-6 4.3-11.7 6.9-17.4 2.5-5.6 5.3-11.1 8.3-16.6 3-5.4 6.1-10.7 9.5-15.9 3.4-5.2 6.9-10.3 11-15.2z"/>
				</g>
				<g id="&lt;Group&gt;">
					<path id="&lt;Path&gt;" class="s9" d="m606.6 245.5c10.5-3.6 21.4-6.2 32.4-8.1 11-1.9 22.2-3 33.5-3.1 11.2-0.2 22.5 0.8 33.6 2.7 11.1 2 22.1 5.2 32.5 9.7 10.4 4.5 20.3 10.4 29.1 17.5 8.8 7.2 16.7 15.5 23.3 24.7 6.7 9.1 11.9 19.2 16.3 29.5l3 7.8 2.6 8 1.2 4 1 4.1 1.9 8.1-2.8-7.8-1.3-4-1.6-3.8-3.1-7.7-3.6-7.5c-1.1-2.5-2.5-4.9-3.8-7.3-1.4-2.4-2.6-4.8-4.2-7.1-1.5-2.3-2.9-4.7-4.5-6.9l-4.8-6.6c-13.5-17.2-31.1-31-51.1-39.5-9.9-4.4-20.4-7.5-31.1-9.6-10.7-2.2-21.7-3.2-32.7-3.6-11-0.3-22 0.1-33 1.3-11 1-21.9 2.9-32.8 5.2z"/>
				</g>
				<g id="&lt;Group&gt;">
					<path id="&lt;Path&gt;" class="s9" d="m657.6 225.2c7.7-1.7 15.7-2.3 23.6-2.5 7.9-0.1 15.9 0.4 23.8 1.5 7.9 1 15.8 2.8 23.4 5.1 7.7 2.4 15.2 5.4 22.4 9 7.1 3.7 13.9 8 20.3 12.8 6.3 5 12.2 10.5 17.6 16.5 10.5 12.1 18.7 26 24.3 40.7-7.8-13.7-17-26.4-27.8-37.5-5.5-5.4-11.2-10.6-17.5-15.1-6.2-4.5-12.8-8.6-19.7-12.1-6.8-3.5-14-6.4-21.3-8.9-7.3-2.5-14.8-4.4-22.4-5.9-15.3-2.9-30.9-4.3-46.7-3.6z"/>
				</g>
				<g id="&lt;Group&gt;">
					<path id="&lt;Path&gt;" class="s9" d="m213 304.6c11.3-10.8 23-21.2 34.9-31.4 5.9-5.2 11.9-10.2 17.8-15.3l18.1-14.9 18.3-14.7c6.1-4.8 12.2-9.7 18.4-14.4 12.4-9.6 25-19 37.9-27.9-11.4 10.9-23.1 21.3-34.9 31.5-5.9 5.1-11.9 10.1-17.8 15.2l-18.1 14.9-18.3 14.7c-6.1 4.8-12.2 9.7-18.5 14.5-12.4 9.5-24.9 18.9-37.8 27.8z"/>
				</g>
				<g id="&lt;Group&gt;">
					<path id="&lt;Path&gt;" class="s9" d="m220.1 286.5c8.1-8.1 16.6-15.7 25.2-23.2 4.2-3.8 8.6-7.4 13-11.1l13.2-10.9 13.4-10.6c4.5-3.4 9-6.9 13.6-10.3 9.1-6.8 18.4-13.4 28.1-19.6-8.1 8.1-16.6 15.8-25.2 23.3-4.2 3.7-8.6 7.4-13 11.1l-13.2 10.8-13.4 10.6c-4.5 3.4-9 7-13.6 10.3-9.2 6.8-18.4 13.5-28.1 19.6z"/>
				</g>
			</g>
		</g>
	</g>
</svg>